<?xml version="1.0" standalone="no"?>
<!DOCTYPE svg PUBLIC "-//W3C//DTD SVG 20010904//EN"
 "http://www.w3.org/TR/2001/REC-SVG-20010904/DTD/svg10.dtd">
<svg version="1.0" xmlns="http://www.w3.org/2000/svg"
 width="1024.000000pt" height="1024.000000pt" viewBox="0 0 16 16"
 preserveAspectRatio="xMidYMid meet">
<metadata>
Created by potrace 1.15, written by Peter Selinger 2001-2017
</metadata>
<g transform="translate(0.000000,1024.000000) scale(0.100000,-0.100000)"
fill="#000000" stroke="none">
<path d="M1160 9659 c-286 -74 -507 -297 -580 -583 -20 -79 -20 -106 -20
-3946 0 -3840 0 -3867 20 -3946 73 -288 296 -511 584 -584 79 -20 106 -20
3946 -20 3840 0 3867 0 3946 20 288 73 511 296 584 584 20 79 20 106 20 3946
0 3840 0 3867 -20 3946 -73 288 -296 511 -584 584 -79 20 -105 20 -3950 19
-3806 0 -3872 0 -3946 -20z m3074 -2152 c15 -19 26 -36 26 -39 0 -3 -21 -11
-47 -18 -61 -16 -311 -98 -338 -110 -11 -5 -47 -19 -80 -31 -138 -49 -445
-194 -610 -287 -137 -78 -372 -239 -362 -249 2 -2 55 21 118 51 164 79 437
185 639 250 97 31 181 56 189 56 7 0 45 9 84 20 114 31 292 67 417 84 437 60
456 61 860 61 363 -1 396 -2 580 -28 308 -42 571 -97 765 -158 302 -94 603
-214 788 -311 121 -65 55 -7 -131 114 -283 184 -665 362 -1044 488 -71 23
-128 45 -128 48 0 4 18 27 39 51 l38 44 149 -11 c153 -12 282 -34 414 -70 344
-93 669 -242 955 -437 128 -86 125 -83 259 -368 25 -54 46 -100 46 -103 0 -3
15 -37 34 -77 18 -40 36 -83 40 -97 4 -14 17 -45 28 -70 29 -63 164 -443 189
-530 6 -19 16 -53 24 -75 7 -22 21 -69 30 -105 10 -36 27 -99 40 -140 23 -79
54 -198 61 -240 3 -14 14 -59 24 -100 19 -76 50 -223 55 -263 1 -12 12 -71 23
-132 21 -114 59 -378 61 -430 1 -16 8 -94 16 -172 8 -78 15 -236 15 -351 l0
-208 -56 -70 c-190 -234 -448 -434 -724 -562 -96 -45 -272 -112 -293 -112 -8
0 -34 -7 -58 -16 -104 -37 -468 -94 -599 -93 l-45 0 -105 130 c-245 304 -273
341 -259 350 8 5 21 9 29 9 23 0 146 44 248 88 258 113 450 242 623 419 61 62
109 116 107 118 -3 3 -43 -18 -89 -46 -69 -42 -300 -159 -424 -215 -48 -22
-261 -104 -269 -104 -5 0 -22 -7 -39 -14 -36 -17 -146 -55 -192 -66 -16 -4
-80 -22 -142 -39 -232 -64 -550 -116 -778 -128 -473 -25 -844 7 -1275 108
-199 47 -464 134 -695 227 -134 54 -446 213 -518 264 -120 85 131 -178 266
-279 159 -118 374 -234 547 -293 52 -18 105 -37 118 -41 25 -10 41 12 -227
-320 -140 -174 -135 -169 -183 -169 -64 0 -362 37 -448 55 -157 33 -417 123
-555 192 -250 125 -494 322 -669 541 l-59 73 6 262 c3 144 10 294 16 334 6 39
11 89 12 110 1 57 38 313 61 438 12 61 22 121 23 135 4 39 43 227 65 310 11
41 29 116 40 165 12 50 29 117 39 150 11 33 29 96 41 140 26 94 135 426 154
470 8 17 21 55 31 85 9 30 30 84 45 120 15 36 57 135 94 221 92 219 189 409
222 440 65 58 313 213 464 289 154 78 411 174 615 229 150 40 325 66 482 69
59 2 63 1 87 -31z"/>
<path d="M3843 5356 c-96 -39 -177 -98 -244 -178 -47 -57 -114 -182 -122 -229
-3 -13 -10 -57 -18 -97 -10 -60 -10 -91 0 -165 31 -220 153 -398 335 -487 101
-50 174 -64 296 -57 88 6 102 10 190 54 175 88 294 245 335 443 48 229 -45
486 -226 630 -113 89 -204 120 -353 120 -102 0 -117 -3 -193 -34z"/>
<path d="M6010 5370 c-92 -33 -152 -70 -218 -134 -87 -83 -163 -207 -177 -287
-3 -19 -10 -52 -15 -74 -34 -148 16 -360 118 -496 174 -234 456 -304 708 -178
94 48 181 127 236 216 47 76 95 218 103 308 14 154 -62 364 -179 494 -40 44
-147 113 -219 142 -64 25 -84 28 -187 28 -89 0 -128 -4 -170 -19z"/>
</g>
</svg>
